<svg xmlns="http://www.w3.org/2000/svg" viewBox="0 0 648 90"><defs><style>.a{fill:#333;}.b{fill:#4d7d87;}.c,.d{fill:#fff;}.c{opacity:0.3;}.d{opacity:0.5;}</style></defs><title>open-government-logo</title><path class="a" d="M155,55a17,17,0,0,1-24,0,16,16,0,0,1-5-12,16,16,0,0,1,5-12,17,17,0,0,1,24,0,16,16,0,0,1,5,12A16,16,0,0,1,155,55Zm-4-20a11,11,0,0,0-16,0,11,11,0,0,0-3,8,11,11,0,0,0,3,8,11,11,0,0,0,16,0,11,11,0,0,0,3-8A11,11,0,0,0,151,35Z"/><path class="a" d="M190,30q3,3,3,8t-3,8-10,3h-6v9h-5V28h11Q186,28,190,30Zm-4,13a7,7,0,0,0,2-5q0-3-2-5H174V45h6Z"/><path class="a" d="M223,28v5H206v8h15v5H206v8h17v5H201V28h22Z"/><path class="a" d="M256,28h5V59h-6L238,36V59h-5V28h5l18,24V28Z"/><path class="a" d="M308,44h5V55q-4,5-13,5a16,16,0,0,1-12-5,16,16,0,0,1-5-12,16,16,0,0,1,5-12,16,16,0,0,1,12-5,17,17,0,0,1,11,4l-3,4-4-2h-4a11,11,0,0,0-8,3,11,11,0,0,0-3,8,11,11,0,0,0,11,11l8-2V44Z"/><path class="a" d="M348,55a17,17,0,0,1-24,0,16,16,0,0,1-5-12,16,16,0,0,1,5-12,17,17,0,0,1,24,0,16,16,0,0,1,5,12A16,16,0,0,1,348,55Zm-4-20a11,11,0,0,0-16,0,11,11,0,0,0-3,8,11,11,0,0,0,3,8,11,11,0,0,0,16,0,11,11,0,0,0,3-8A11,11,0,0,0,344,35Z"/><path class="a" d="M375,59h-6L357,28h6l10,24,10-24h6Z"/><path class="a" d="M416,28v5H400v8h15v5H400v8h17v5H394V28h22Z"/><path class="a" d="M451,38q0,8-7,10l8,11h-7l-8-11h-7V59h-5V28h12q7,0,10,2T451,38Zm-7,4a6,6,0,0,0,2-4q0-3-2-4H431V44h13Z"/><path class="a" d="M484,28h5V59h-6L466,36V59h-5V28h5l18,24V28Z"/><path class="a" d="M505,59h-5V28h8l10,20,10-20h8V59h-5V34L519,56h-3L505,34V59Z"/><path class="a" d="M568,28v5H551v8h15v5H551v8h17v5H546V28h22Z"/><path class="a" d="M601,28h5V59h-6L583,36V59h-5V28h5l18,24V28Z"/><path class="a" d="M629,32V59h-5V32H614V28h24v5H629Z"/><circle class="b" cx="52" cy="45" r="38"/><circle class="c" cx="57" cy="39" r="24" transform="translate(-7 12) rotate(-12)"/><circle class="d" cx="47" cy="50" r="24" transform="translate(-9 10) rotate(-12)"/></svg>