<svg xmlns="http://www.w3.org/2000/svg" viewBox="0 0 9904 1296"><defs><style>.a{fill:#333;}.b{fill:#4d7d87;}.c,.d{fill:#fff;}.c{opacity:0.3;}.d{opacity:0.5;}</style></defs><title>og-logo</title><path class="a" d="M2268,808q-75,73-186,73t-186-73q-75-73-75-183t75-183q75-73,186-73t186,73q75,73,75,183T2268,808Zm-61-310q-51-52-124-52t-124,52q-51,52-51,127t51,127q51,52,124,52t124-52q51-52,51-127T2207,498Z"/><path class="a" d="M2812,424q52,43,52,133t-53,132q-53,42-162,42h-88V876h-84V381h170Q2760,381,2812,424Zm-59,204q25-27,25-78t-32-73q-32-21-100-21h-85V655h97Q2727,655,2752,628Z"/><path class="a" d="M3338,381v79H3074V591h237v74H3074V797h273v79H2990V381h348Z"/><path class="a" d="M3853,381h84V876h-91L3565,515V876h-84V381h84l288,370V381Z"/><path class="a" d="M4667,635h84V804q-70,77-200,77-110,0-184-72t-74-183q0-110,75-184t182-74q107,0,178,62l-45,64q-29-25-58-34t-68-10q-75,0-126,49t-51,127q0,79,50,127t120,48q70,0,118-30V635Z"/><path class="a" d="M5303,808q-75,73-186,73t-186-73q-75-73-75-183t75-183q75-73,186-73t186,73q75,73,75,183T5303,808Zm-61-310q-51-52-124-52t-124,52q-51,52-51,127t51,127q51,52,124,52t124-52q51-52,51-127T5242,498Z"/><path class="a" d="M5730,876h-93L5437,381h93l152,370,152-370h93Z"/><path class="a" d="M6375,381v79H6111V591h237v74H6111V797h273v79H6028V381h348Z"/><path class="a" d="M6914,542q0,123-107,154l130,180H6831L6713,710H6603V876h-84V381h184q113,0,162,38T6914,542Zm-111,70q25-22,25-70t-26-67q-26-18-93-18H6603V634h104Q6778,634,6803,612Z"/><path class="a" d="M7434,381h84V876h-91L7147,515V876h-84V381h84l288,370V381Z"/><path class="a" d="M7767,876h-84V381h130l149,311,149-311h130V876h-84V489L7986,833h-47L7767,489V876Z"/><path class="a" d="M8756,381v79H8492V591h237v74H8492V797h273v79H8408V381h348Z"/><path class="a" d="M9271,381h84V876h-91L8983,515V876h-84V381h84l288,370V381Z"/><path class="a" d="M9707,457V876h-84V457H9473V381h384v76H9707Z"/><circle class="b" cx="645" cy="653" r="601"/><circle class="c" cx="728" cy="564" r="381" transform="translate(-98 157) rotate(-12)"/><circle class="d" cx="570" cy="733" r="381" transform="translate(-135 129) rotate(-12)"/></svg>